{
	"asset":
	{
		"version": "2.0",
		"generator": "Unreal Engine 5.1.1 glTF Exporter 1.3.1"
	},
	"scene": 0,
	"accessors": [
		{
			"bufferView": 0,
			"count": 110811,
			"type": "SCALAR",
			"componentType": 5123
		},
		{
			"bufferView": 1,
			"count": 38666,
			"type": "VEC3",
			"componentType": 5126,
			"min": [ -0.677615047, -0.0149264392, -14.2664833 ],
			"max": [ 0.672011733, 2.79211855, 2.39140558 ]
		},
		{
			"bufferView": 2,
			"count": 38666,
			"type": "VEC3",
			"componentType": 5126
		},
		{
			"bufferView": 3,
			"count": 38666,
			"type": "VEC4",
			"componentType": 5126
		},
		{
			"bufferView": 4,
			"count": 38666,
			"type": "VEC2",
			"componentType": 5126
		},
		{
			"bufferView": 5,
			"count": 38666,
			"type": "VEC2",
			"componentType": 5126
		},
		{
			"bufferView": 6,
			"count": 38666,
			"type": "VEC2",
			"componentType": 5126
		},
		{
			"bufferView": 7,
			"count": 38666,
			"type": "VEC2",
			"componentType": 5126
		},
		{
			"bufferView": 8,
			"count": 38666,
			"type": "VEC2",
			"componentType": 5126
		},
		{
			"bufferView": 9,
			"count": 38666,
			"type": "VEC2",
			"componentType": 5126
		},
		{
			"bufferView": 10,
			"count": 38666,
			"type": "VEC2",
			"componentType": 5126
		},
		{
			"bufferView": 11,
			"count": 38666,
			"type": "VEC2",
			"componentType": 5126
		},
		{
			"bufferView": 12,
			"count": 75339,
			"type": "SCALAR",
			"componentType": 5123
		},
		{
			"bufferView": 13,
			"count": 22857,
			"type": "VEC3",
			"componentType": 5126,
			"min": [ -0.533426046, -4.03169107, -7.21059608 ],
			"max": [ 0.533426046, 1.19740915, 8.34959412 ]
		},
		{
			"bufferView": 14,
			"count": 22857,
			"type": "VEC3",
			"componentType": 5126
		},
		{
			"bufferView": 15,
			"count": 22857,
			"type": "VEC4",
			"componentType": 5126
		},
		{
			"bufferView": 16,
			"count": 22857,
			"type": "VEC2",
			"componentType": 5126
		},
		{
			"bufferView": 17,
			"count": 22857,
			"type": "VEC2",
			"componentType": 5126
		},
		{
			"bufferView": 18,
			"count": 22857,
			"type": "VEC2",
			"componentType": 5126
		},
		{
			"bufferView": 19,
			"count": 22857,
			"type": "VEC2",
			"componentType": 5126
		},
		{
			"bufferView": 20,
			"count": 22857,
			"type": "VEC2",
			"componentType": 5126
		},
		{
			"bufferView": 21,
			"count": 22857,
			"type": "VEC2",
			"componentType": 5126
		},
		{
			"bufferView": 22,
			"count": 22857,
			"type": "VEC2",
			"componentType": 5126
		},
		{
			"bufferView": 23,
			"count": 22857,
			"type": "VEC2",
			"componentType": 5126
		}
	],
	"buffers": [
		{
			"uri": "AR-15_LP.bin",
			"byteLength": 6770696
		}
	],
	"bufferViews": [
		{
			"buffer": 0,
			"byteLength": 221622,
			"target": 34963
		},
		{
			"buffer": 0,
			"byteLength": 463992,
			"byteOffset": 221624,
			"target": 34962
		},
		{
			"buffer": 0,
			"byteLength": 463992,
			"byteOffset": 685616,
			"target": 34962
		},
		{
			"buffer": 0,
			"byteLength": 618656,
			"byteOffset": 1149608,
			"target": 34962
		},
		{
			"buffer": 0,
			"byteLength": 309328,
			"byteOffset": 1768264,
			"target": 34962
		},
		{
			"buffer": 0,
			"byteLength": 309328,
			"byteOffset": 2077592,
			"target": 34962
		},
		{
			"buffer": 0,
			"byteLength": 309328,
			"byteOffset": 2386920,
			"target": 34962
		},
		{
			"buffer": 0,
			"byteLength": 309328,
			"byteOffset": 2696248,
			"target": 34962
		},
		{
			"buffer": 0,
			"byteLength": 309328,
			"byteOffset": 3005576,
			"target": 34962
		},
		{
			"buffer": 0,
			"byteLength": 309328,
			"byteOffset": 3314904,
			"target": 34962
		},
		{
			"buffer": 0,
			"byteLength": 309328,
			"byteOffset": 3624232,
			"target": 34962
		},
		{
			"buffer": 0,
			"byteLength": 309328,
			"byteOffset": 3933560,
			"target": 34962
		},
		{
			"buffer": 0,
			"byteLength": 150678,
			"byteOffset": 4242888,
			"target": 34963
		},
		{
			"buffer": 0,
			"byteLength": 274284,
			"byteOffset": 4393568,
			"target": 34962
		},
		{
			"buffer": 0,
			"byteLength": 274284,
			"byteOffset": 4667852,
			"target": 34962
		},
		{
			"buffer": 0,
			"byteLength": 365712,
			"byteOffset": 4942136,
			"target": 34962
		},
		{
			"buffer": 0,
			"byteLength": 182856,
			"byteOffset": 5307848,
			"target": 34962
		},
		{
			"buffer": 0,
			"byteLength": 182856,
			"byteOffset": 5490704,
			"target": 34962
		},
		{
			"buffer": 0,
			"byteLength": 182856,
			"byteOffset": 5673560,
			"target": 34962
		},
		{
			"buffer": 0,
			"byteLength": 182856,
			"byteOffset": 5856416,
			"target": 34962
		},
		{
			"buffer": 0,
			"byteLength": 182856,
			"byteOffset": 6039272,
			"target": 34962
		},
		{
			"buffer": 0,
			"byteLength": 182856,
			"byteOffset": 6222128,
			"target": 34962
		},
		{
			"buffer": 0,
			"byteLength": 182856,
			"byteOffset": 6404984,
			"target": 34962
		},
		{
			"buffer": 0,
			"byteLength": 182856,
			"byteOffset": 6587840,
			"target": 34962
		}
	],
	"images": [
		{
			"uri": "texture_set_2_MetallicRoughness.png"
		},
		{
			"uri": "texture_set_1_MetallicRoughness.png"
		},
		{
			"uri": "texture_set_2_Base_color.png"
		},
		{
			"uri": "texture_set_2_Normal_DirectX.png"
		},
		{
			"uri": "texture_set_1_Base_color.png"
		},
		{
			"uri": "texture_set_1_Normal_DirectX.png"
		}
	],
	"materials": [
		{
			"name": "texture_set_2",
			"pbrMetallicRoughness":
			{
				"baseColorTexture":
				{
					"index": 0
				},
				"metallicRoughnessTexture":
				{
					"index": 1
				}
			},
			"normalTexture":
			{
				"index": 2
			}
		},
		{
			"name": "texture_set_1",
			"pbrMetallicRoughness":
			{
				"baseColorTexture":
				{
					"index": 3
				},
				"metallicRoughnessTexture":
				{
					"index": 4
				}
			},
			"normalTexture":
			{
				"index": 5
			}
		}
	],
	"meshes": [
		{
			"name": "AR-15_LP",
			"primitives": [
				{
					"attributes":
					{
						"POSITION": 1,
						"NORMAL": 2,
						"TANGENT": 3,
						"TEXCOORD_0": 4,
						"TEXCOORD_1": 5,
						"TEXCOORD_2": 6,
						"TEXCOORD_3": 7,
						"TEXCOORD_4": 8,
						"TEXCOORD_5": 9,
						"TEXCOORD_6": 10,
						"TEXCOORD_7": 11
					},
					"indices": 0,
					"material": 0
				},
				{
					"attributes":
					{
						"POSITION": 13,
						"NORMAL": 14,
						"TANGENT": 15,
						"TEXCOORD_0": 16,
						"TEXCOORD_1": 17,
						"TEXCOORD_2": 18,
						"TEXCOORD_3": 19,
						"TEXCOORD_4": 20,
						"TEXCOORD_5": 21,
						"TEXCOORD_6": 22,
						"TEXCOORD_7": 23
					},
					"indices": 12,
					"material": 1
				}
			]
		}
	],
	"nodes": [
		{
			"mesh": 0
		}
	],
	"samplers": [
		{
			"name": "texture_set_2_MetallicRoughness",
			"minFilter": 9987,
			"magFilter": 9729
		},
		{
			"name": "texture_set_1_MetallicRoughness",
			"minFilter": 9987,
			"magFilter": 9729
		},
		{
			"name": "texture_set_2_Base_color",
			"minFilter": 9987,
			"magFilter": 9729
		},
		{
			"name": "texture_set_2_Normal_DirectX",
			"minFilter": 9987,
			"magFilter": 9729
		},
		{
			"name": "texture_set_1_Base_color",
			"minFilter": 9987,
			"magFilter": 9729
		},
		{
			"name": "texture_set_1_Normal_DirectX",
			"minFilter": 9987,
			"magFilter": 9729
		}
	],
	"scenes": [
		{
			"nodes": [ 0 ]
		}
	],
	"textures": [
		{
			"name": "texture_set_2_Base_color",
			"sampler": 2,
			"source": 2
		},
		{
			"name": "texture_set_2_MetallicRoughness",
			"sampler": 0,
			"source": 0
		},
		{
			"name": "texture_set_2_Normal_DirectX",
			"sampler": 3,
			"source": 3
		},
		{
			"name": "texture_set_1_Base_color",
			"sampler": 4,
			"source": 4
		},
		{
			"name": "texture_set_1_MetallicRoughness",
			"sampler": 1,
			"source": 1
		},
		{
			"name": "texture_set_1_Normal_DirectX",
			"sampler": 5,
			"source": 5
		}
	]
}